<svg xmlns="http://www.w3.org/2000/svg" xmlns:xlink="http://www.w3.org/1999/xlink" width="500" zoomAndPan="magnify" viewBox="0 0 375 374.999991" height="500" preserveAspectRatio="xMidYMid meet" version="1.0"><defs><clipPath id="33acce87ac"><path d="M 76 84 L 365 84 L 365 327 L 76 327 Z M 76 84 " clip-rule="nonzero"/></clipPath><clipPath id="941f58971c"><path d="M 114.898438 32.765625 L 369.375 88.535156 L 313.601562 343.011719 L 59.128906 287.242188 Z M 114.898438 32.765625 " clip-rule="nonzero"/></clipPath><clipPath id="cc8a11bbe4"><path d="M 114.898438 32.765625 L 369.375 88.535156 L 313.601562 343.011719 L 59.128906 287.242188 Z M 114.898438 32.765625 " clip-rule="nonzero"/></clipPath><clipPath id="4f21ba4eab"><path d="M 6 212 L 144 212 L 144 286 L 6 286 Z M 6 212 " clip-rule="nonzero"/></clipPath><clipPath id="aaf1a076c2"><path d="M 144.726562 258.917969 L 35.519531 313.0625 L -2.699219 235.976562 L 106.503906 181.832031 Z M 144.726562 258.917969 " clip-rule="nonzero"/></clipPath><clipPath id="c17bd07894"><path d="M 106.289062 181.394531 L -2.917969 235.542969 L 35.304688 312.628906 L 144.511719 258.480469 Z M 106.289062 181.394531 " clip-rule="nonzero"/></clipPath></defs><g clip-path="url(#33acce87ac)"><g clip-path="url(#941f58971c)"><g clip-path="url(#cc8a11bbe4)"><path fill="#3d3b3a" d="M 364.515625 103.449219 C 364.503906 99.722656 363.183594 96 360.789062 92.652344 C 358.074219 88.855469 355.144531 86.386719 351.757812 85.15625 C 348.375 83.933594 344.535156 83.953125 340.011719 85.152344 C 338.703125 85.496094 337.40625 85.894531 336.109375 86.300781 C 334.820312 86.710938 333.53125 87.136719 332.238281 87.546875 C 321.414062 90.996094 311.210938 95.664062 301.402344 101.0625 C 291.597656 106.460938 282.1875 112.582031 272.945312 118.941406 C 265.933594 123.765625 258.792969 126.910156 251.390625 128.265625 C 243.984375 129.625 236.316406 129.207031 228.234375 126.90625 C 215.800781 123.367188 203.394531 119.742188 190.976562 116.152344 C 178.558594 112.5625 166.132812 109 153.664062 105.589844 C 147.042969 103.78125 140.371094 102.148438 133.667969 100.632812 C 126.964844 99.121094 120.238281 97.730469 113.503906 96.398438 C 111.304688 95.96875 108.773438 95.566406 106.484375 95.925781 C 104.191406 96.285156 102.136719 97.40625 100.894531 100.019531 C 99.625 102.679688 100.09375 104.886719 101.324219 106.800781 C 102.550781 108.71875 104.53125 110.339844 106.28125 111.835938 C 110.058594 115.058594 113.875 118.226562 117.738281 121.347656 C 121.597656 124.464844 125.5 127.535156 129.4375 130.550781 C 136.535156 135.984375 143.726562 141.300781 150.898438 146.644531 C 158.066406 151.984375 165.214844 157.359375 172.222656 162.898438 C 177.246094 166.875 179.628906 170.785156 179.457031 174.652344 C 179.289062 178.515625 176.554688 182.339844 171.351562 186.132812 C 168.792969 187.996094 166.152344 189.742188 163.511719 191.492188 C 160.867188 193.238281 158.222656 194.984375 155.664062 196.84375 C 155.386719 197.050781 154.746094 197.675781 154.640625 198.582031 C 154.515625 199.652344 155.214844 200.871094 156.214844 201.265625 C 157.007812 201.578125 157.832031 201.363281 158.113281 201.183594 C 161.460938 199.042969 164.824219 196.902344 168.125 194.683594 C 171.429688 192.46875 174.675781 190.171875 177.800781 187.726562 C 179.066406 186.730469 180.1875 185.414062 181.140625 183.960938 C 182.089844 182.507812 182.878906 180.914062 183.476562 179.375 C 185.222656 174.871094 184.9375 171 183.371094 167.613281 C 181.816406 164.226562 178.980469 161.320312 175.640625 158.761719 C 167.976562 152.882812 160.222656 147.113281 152.46875 141.34375 C 144.71875 135.574219 136.96875 129.804688 129.308594 123.917969 C 125.191406 120.753906 121.191406 117.449219 117.21875 114.101562 C 113.246094 110.753906 109.308594 107.363281 105.3125 104.042969 C 105.652344 103.246094 105.988281 102.445312 106.324219 101.648438 C 107.910156 101.703125 109.535156 101.621094 111.136719 101.617188 C 112.738281 101.617188 114.320312 101.6875 115.835938 102.054688 C 123.660156 103.9375 131.46875 105.851562 139.273438 107.820312 C 147.074219 109.785156 154.863281 111.796875 162.636719 113.875 C 174.601562 117.074219 186.523438 120.417969 198.457031 123.71875 C 210.390625 127.019531 222.332031 130.28125 234.339844 133.308594 C 240.621094 134.898438 246.820312 135.191406 252.820312 134.148438 C 258.820312 133.105469 264.625 130.726562 270.121094 126.953125 C 272.136719 125.570312 274.203125 124.265625 276.28125 122.984375 C 278.359375 121.699219 280.453125 120.429688 282.523438 119.128906 C 291.496094 113.472656 300.542969 107.960938 309.917969 103.128906 C 319.296875 98.292969 329.007812 94.132812 339.308594 91.179688 C 343.429688 90 346.6875 89.78125 349.410156 90.628906 C 352.136719 91.480469 354.328125 93.386719 356.320312 96.449219 C 358.050781 99.121094 358.765625 102.003906 358.371094 104.941406 C 357.972656 107.878906 356.46875 110.871094 353.769531 113.757812 C 351.929688 115.726562 349.960938 117.59375 347.90625 119.375 C 345.855469 121.148438 343.71875 122.835938 341.542969 124.4375 C 331.558594 131.78125 321.519531 139.058594 311.484375 146.339844 C 301.445312 153.617188 291.414062 160.898438 281.429688 168.246094 C 275.453125 172.648438 271.238281 177.984375 268.414062 184.023438 C 265.589844 190.058594 264.152344 196.78125 263.71875 203.953125 C 262.835938 218.648438 262.050781 233.34375 261.222656 248.039062 C 260.394531 262.734375 259.539062 277.421875 258.515625 292.105469 C 258.246094 295.949219 257.597656 299.789062 256.773438 303.59375 C 255.945312 307.40625 254.9375 311.1875 253.945312 314.9375 C 253.660156 316.015625 252.871094 317.195312 251.898438 318.171875 C 250.921875 319.140625 249.757812 319.902344 248.722656 320.121094 C 248.023438 320.269531 247.027344 319.636719 246.050781 318.722656 C 245.078125 317.8125 244.125 316.617188 243.511719 315.640625 C 242.710938 314.359375 241.992188 312.976562 241.40625 311.539062 C 240.816406 310.101562 240.359375 308.617188 240.074219 307.136719 C 238.320312 297.925781 236.675781 288.691406 235.015625 279.464844 C 233.355469 270.234375 231.683594 261.011719 229.898438 251.808594 C 229.023438 247.300781 228.148438 242.769531 227.105469 238.28125 C 226.0625 233.800781 224.851562 229.367188 223.300781 225.070312 C 221.660156 220.511719 218.84375 217.5 215.300781 216.050781 C 211.753906 214.597656 207.476562 214.707031 202.90625 216.378906 C 200.960938 217.09375 199.089844 217.984375 197.226562 218.914062 C 195.363281 219.847656 193.511719 220.820312 191.628906 221.695312 C 184.035156 225.21875 176.375 227.34375 168.585938 227.953125 C 160.796875 228.558594 152.875 227.652344 144.746094 225.105469 C 135.773438 222.296875 126.738281 219.6875 117.585938 217.582031 C 108.433594 215.476562 99.167969 213.878906 89.734375 213.089844 C 87.386719 212.894531 84.855469 212.546875 82.585938 212.859375 C 80.320312 213.167969 78.320312 214.136719 77.042969 216.574219 C 75.710938 219.117188 76.148438 221.324219 77.308594 223.320312 C 78.46875 225.3125 80.351562 227.09375 81.898438 228.789062 C 85.496094 232.726562 89.144531 236.621094 92.816406 240.492188 C 96.492188 244.359375 100.191406 248.203125 103.910156 252.027344 C 108.226562 256.464844 111.558594 261.269531 113.707031 266.535156 C 115.851562 271.796875 116.808594 277.519531 116.355469 283.796875 C 115.816406 291.324219 118.429688 296.019531 122.523438 298.683594 C 126.617188 301.34375 132.1875 301.964844 137.570312 301.332031 C 140.359375 301.003906 142.507812 300.058594 143.945312 298.492188 C 145.382812 296.925781 146.113281 294.730469 146.078125 291.914062 C 146.03125 288.222656 145.863281 284.535156 145.628906 280.84375 C 145.390625 277.152344 145.082031 273.46875 144.75 269.789062 C 144.566406 267.730469 144.328125 265.65625 143.980469 263.609375 C 143.636719 261.558594 143.183594 259.539062 142.566406 257.578125 C 142.453125 257.210938 142.203125 256.890625 141.867188 256.597656 C 141.816406 256.550781 141.320312 256.054688 140.683594 255.792969 C 139.503906 255.3125 137.734375 255.578125 136.777344 256.742188 C 136.097656 257.570312 136.089844 258.554688 136.054688 259.222656 C 136.003906 260.078125 136.257812 260.9375 136.546875 261.804688 C 136.84375 262.671875 137.179688 263.550781 137.3125 264.429688 C 137.917969 268.527344 138.605469 272.625 139.214844 276.722656 C 139.820312 280.820312 140.351562 284.929688 140.648438 289.050781 C 140.871094 292.089844 140.398438 293.996094 139.113281 295.070312 C 137.828125 296.140625 135.71875 296.375 132.660156 296.0625 C 128.480469 295.640625 125.683594 294.832031 123.992188 293.082031 C 122.296875 291.328125 121.703125 288.632812 121.925781 284.425781 C 122.304688 277.027344 121.148438 270.332031 118.625 264.203125 C 116.097656 258.074219 112.210938 252.507812 107.132812 247.363281 C 104.082031 244.277344 101.058594 241.164062 98.050781 238.03125 C 95.046875 234.898438 92.0625 231.746094 89.09375 228.578125 C 87.835938 227.234375 86.648438 225.816406 85.398438 224.285156 C 84.152344 222.753906 82.839844 221.101562 81.328125 219.28125 C 82.5625 219.171875 83.480469 219.058594 84.234375 218.980469 C 84.992188 218.898438 85.585938 218.855469 86.179688 218.871094 C 95.796875 219.105469 105.203125 220.523438 114.457031 222.605469 C 123.710938 224.691406 132.808594 227.460938 141.808594 230.390625 C 151.53125 233.554688 160.855469 234.550781 169.964844 233.628906 C 179.070312 232.710938 187.957031 229.875 196.785156 225.375 C 198.152344 224.675781 199.527344 223.972656 200.914062 223.3125 C 202.308594 222.65625 203.71875 222.050781 205.164062 221.558594 C 208.347656 220.476562 211.03125 220.367188 213.230469 221.304688 C 215.425781 222.242188 217.125 224.222656 218.328125 227.328125 C 219.367188 230.007812 220.300781 232.75 221.09375 235.539062 C 221.882812 238.320312 222.535156 241.144531 223.007812 243.972656 C 224.324219 251.894531 225.394531 259.871094 226.519531 267.828125 C 227.34375 273.628906 228.34375 279.625 230.378906 291.609375 C 230.378906 291.609375 231.28125 296.921875 233.121094 304.46875 C 234.472656 310.039062 235.429688 313.035156 237.207031 316.359375 C 238.359375 318.511719 240.132812 321.324219 243.019531 323.5625 C 244.550781 324.753906 246.273438 325.625 248.261719 326.03125 C 250.589844 326.5 252.625 325.785156 254.28125 324.421875 C 255.933594 323.058594 257.214844 321.042969 258.039062 318.921875 C 258.945312 316.578125 259.742188 314.171875 260.425781 311.734375 C 261.109375 309.296875 261.6875 306.828125 262.148438 304.351562 C 264.925781 289.449219 266.273438 274.421875 267.027344 259.359375 C 267.78125 244.300781 267.953125 229.199219 268.367188 214.144531 C 268.648438 203.910156 270.351562 194.832031 274.152344 186.867188 C 277.949219 178.90625 283.839844 172.046875 292.511719 166.253906 C 301.011719 160.574219 309.390625 154.703125 317.695312 148.734375 C 325.996094 142.757812 334.230469 136.6875 342.4375 130.585938 C 345.675781 128.179688 348.863281 125.628906 351.894531 122.910156 C 354.921875 120.195312 357.792969 117.316406 360.386719 114.253906 C 363.238281 110.894531 364.539062 107.167969 364.523438 103.441406 Z M 364.515625 103.449219 " fill-opacity="1" fill-rule="nonzero"/></g></g></g><g clip-path="url(#4f21ba4eab)"><g clip-path="url(#aaf1a076c2)"><g clip-path="url(#c17bd07894)"><path fill="#3d3b3a" d="M 9.785156 241.5625 C 15.015625 237.113281 23.761719 239.351562 29.515625 241.34375 C 34.300781 243.019531 38.941406 245.023438 43.441406 247.359375 L 40.9375 236.046875 C 40.042969 231.992188 38.894531 227.90625 38.828125 223.730469 C 38.78125 220.679688 39.277344 217.304688 41.4375 214.980469 C 43.804688 212.433594 47.644531 211.984375 50.925781 212.214844 C 69.242188 213.492188 72.476562 238.5 70.980469 252.660156 C 70.570312 256.402344 69.921875 260.101562 69.039062 263.761719 C 70.5625 263.195312 72.074219 262.613281 73.570312 262.035156 C 84.957031 257.644531 96.28125 252.996094 108.488281 251.527344 C 120.269531 250.113281 133.234375 251.328125 143.351562 257.996094 C 144.695312 258.878906 142.550781 259.246094 141.890625 259.324219 C 140.425781 259.492188 137.992188 259.488281 136.675781 258.628906 C 126.019531 251.605469 113.488281 252.402344 101.652344 255.742188 C 90.171875 258.976562 79.363281 264.210938 68.011719 267.8125 C 66.472656 273.464844 64.578125 279.039062 62.691406 284.570312 C 62.066406 286.40625 54.71875 285.003906 55.023438 284.089844 C 56.554688 279.59375 58.128906 274.910156 59.515625 270.121094 C 59.199219 270.191406 58.890625 270.269531 58.570312 270.335938 C 47.070312 272.734375 34.226562 272.542969 23.265625 267.976562 C 17.925781 265.75 12.835938 262.25 9.511719 257.4375 C 6.324219 252.78125 4.929688 245.691406 9.785156 241.5625 Z M 50.183594 214.242188 L 50.699219 214.265625 C 50.441406 214.171875 50.257812 214.132812 50.179688 214.242188 Z M 23.484375 263.84375 C 27.828125 266.847656 32.617188 268.679688 37.855469 269.335938 C 45.5 270.34375 53.105469 268.945312 60.476562 266.699219 C 64.328125 252.1875 65.933594 236.941406 58.800781 223.300781 C 57.875 221.445312 56.742188 219.730469 55.40625 218.144531 C 55.082031 217.78125 52.429688 215.261719 51.019531 214.433594 C 50.585938 214.601562 50.183594 214.820312 49.808594 215.089844 C 48.957031 215.703125 48.28125 216.46875 47.777344 217.390625 C 46.964844 218.859375 46.652344 220.613281 46.527344 222.269531 C 46.191406 226.710938 47.394531 231.085938 48.339844 235.378906 C 49.609375 241.121094 50.878906 246.859375 52.148438 252.597656 C 52.460938 254.023438 45.660156 253.101562 44.976562 252.667969 C 39.261719 249.039062 33.253906 245.996094 26.945312 243.539062 C 24.488281 242.609375 20.894531 240.566406 18.347656 241.789062 C 15.742188 243.046875 14.421875 246.078125 14.234375 248.832031 C 13.816406 255 18.757812 260.515625 23.484375 263.84375 Z M 23.484375 263.84375 " fill-opacity="1" fill-rule="nonzero"/></g></g></g></svg>